PathFileType	4	(X/Y/Z)	KinectSkeleton.trc																																																	
DataRate	CameraRate	NumFrames	NumMarkers	Units	OrigDataRate	OrigDataStartFrame	OrigNumFrames																																													
60	60	15	17	mm	60	148	300																																													
Frame#	Time	Neck			ShoulderMid			R.Shoulder			L.Shoulder			R.Elbow			L.Elbow			R.Wrist			L.Wrist			HipCenter			R.Hip			L.Hip			R.Knee			L.Knee			R.Ankle			L.Ankle			R.Foot			L.Foot		
		X1	Y1	Z1	X2	Y2	Z2	X3	Y3	Z3	X4	Y4	Z4	X5	Y5	Z5	X6	Y6	Z6	X7	Y7	Z7	X8	Y8	Z8	X9	Y9	Z9	X10	Y10	Z10	X11	Y11	Z11	X12	Y12	Z12	X13	Y13	Z13	X14	Y14	Z14	X15	Y15	Z15	X16	Y16	Z16	X17	Y17	Z17
																																																				
148	8.026	-1905.676	1094.703	281.568	-1905.676	1094.703	281.568	-1902.508	1027.574	450.577	-1890.676	1025.103	102.585	-1962.016	945.138	725.235	-1939.791	935.238	-165.986	-1887.084	894.692	952.221	-1817.244	886.273	-367.937	-1898.654	536.288	296.146	-1901.628	538.997	381.574	-1895.355	533.283	201.409	-1945.89	129.353	438.597	-1937.481	120.171	170.492	-2032.555	-261.279	478.747	-2009.089	-270.24	141.88	-1901.475	-374.531	524.936	-1842.257	-370.271	130.445
149	8.101	-1905.645	1094.711	281.602	-1905.645	1094.711	281.602	-1902.465	1027.559	450.613	-1890.636	1025.113	102.607	-1961.921	945.083	725.287	-1939.712	935.265	-165.993	-1886.918	894.565	952.248	-1817.084	886.27	-367.904	-1898.637	536.265	296.156	-1901.611	538.971	381.589	-1895.34	533.263	201.414	-1945.822	129.298	438.599	-1937.53	120.136	170.478	-2032.407	-261.372	478.769	-2009.273	-270.272	141.869	-1901.323	-374.647	524.926	-1842.53	-370.454	130.277
150	8.148	-1905.42	1094.663	281.746	-1905.42	1094.663	281.746	-1902.191	1027.472	450.755	-1890.441	1025.06	102.735	-1961.435	944.918	725.471	-1939.508	935.174	-165.874	-1886.296	894.287	952.378	-1816.805	886.124	-367.743	-1898.514	536.175	296.241	-1901.483	538.875	381.68	-1895.221	533.181	201.493	-1945.701	129.171	438.66	-1937.294	120.016	170.558	-2032.372	-261.512	478.765	-2008.828	-270.453	141.919	-1901.543	-375.043	525.062	-1842.035	-370.584	130.398
151	8.194	-1904.621	1094.677	282.325	-1904.621	1094.677	282.325	-1901.126	1027.178	451.325	-1889.886	1025.248	103.118	-1959.676	944.556	726.339	-1939.474	935.701	-165.674	-1883.797	892.626	952.848	-1817.439	886.919	-368.169	-1897.899	535.865	296.402	-1900.849	538.523	381.889	-1894.628	532.916	201.6	-1945.175	128.565	438.593	-1935.893	119.452	170.545	-2032.81	-262.193	478.052	-2006.412	-271.399	141.605	-1902.631	-376.409	524.866	-1839.499	-371.602	130.696
152	8.239	-1905.792	1094.216	282.508	-1905.792	1094.216	282.508	-1900.537	1025.948	451.367	-1887.807	1025.156	103.202	-1960.981	941.304	725.651	-1936.599	933.625	-165.36	-1883.927	892.122	952.627	-1814.624	890.488	-369.439	-1895.166	535.008	296.48	-1899.161	537.837	382.001	-1890.735	531.871	201.642	-1943.592	127.502	438.805	-1935.684	118.378	170.774	-2033.962	-263.104	477.502	-2011.379	-271.918	142.214	-1902.515	-375.382	526.083	-1843.64	-371.006	130.514
153	8.288	-1905.111	1094.219	282.636	-1905.111	1094.219	282.636	-1899.979	1025.939	451.546	-1887.439	1025.175	103.229	-1960.662	942.098	726.128	-1936.877	934.017	-165.444	-1883.72	892.417	953.121	-1815.432	890.599	-369.873	-1895.106	534.784	296.515	-1899.086	537.605	382.064	-1890.693	531.655	201.643	-1943.388	127.115	438.858	-1935.758	118.041	170.706	-2033.717	-263.629	477.638	-2011.191	-272.438	142.109	-1902.425	-376.426	525.651	-1843.184	-371.106	129.637
154	8.348	-1904.712	1093.951	283.498	-1904.712	1093.951	283.498	-1900.228	1025.277	452.371	-1888.955	1025.251	103.755	-1957.055	942.65	728.235	-1936.147	933.588	-165.241	-1882.648	888.72	955.181	-1814.424	893.394	-370.248	-1893.07	534.416	296.729	-1894.156	537.083	382.394	-1891.866	531.459	201.729	-1942.749	126.877	438.624	-1936.508	117.663	170.954	-2034.866	-263.521	477.901	-2011.275	-273.045	142.112	-1903.179	-375.911	525.985	-1842.87	-371.116	129.413
155	8.394	-1904.236	1093.871	283.686	-1904.236	1093.871	283.686	-1899.773	1025.136	452.538	-1888.546	1025.163	103.936	-1956.465	942.79	728.514	-1935.682	933.45	-165.053	-1881.495	888.365	955.157	-1813.773	893.154	-369.93	-1892.994	534.308	296.816	-1894.079	536.964	382.482	-1891.791	531.363	201.816	-1942.648	126.745	438.65	-1936.131	117.536	171.014	-2034.735	-263.664	477.898	-2010.306	-273.277	142.054	-1902.946	-376.037	525.742	-1841.698	-371.063	129.851
156	8.439	-1903.798	1093.588	284.382	-1903.798	1093.588	284.382	-1899.156	1024.294	453.024	-1888.039	1024.905	104.622	-1955.359	941.573	728.938	-1934.763	932.596	-164.185	-1878.125	884.025	954.001	-1812.205	891.978	-368.564	-1892.646	534.101	296.966	-1893.719	536.702	382.62	-1891.455	531.217	201.979	-1941.874	126.472	438.564	-1936.181	117.512	171.003	-2032.767	-264.126	478.053	-2010.978	-273.115	142.02	-1899.838	-375.212	525.64	-1842.747	-371.472	129.702
157	8.484	-1903.388	1095.043	284.195	-1903.388	1095.043	284.195	-1899.417	1025.052	452.89	-1886.79	1025.86	104.356	-1956.092	940.307	728.481	-1931.443	933.409	-165.136	-1878.292	878.121	952.443	-1807.769	888.943	-368.394	-1892.532	534.836	296.552	-1893.761	537.416	382.311	-1891.17	531.975	201.448	-1942.366	126.749	438.516	-1935.821	117.742	170.445	-2034.429	-264.091	477.995	-2010.77	-273.367	141.537	-1901.793	-376.067	525.156	-1842.101	-371.533	129.867
158	8.531	-1903.38	1095.034	284.197	-1903.38	1095.034	284.197	-1899.402	1025.042	452.891	-1886.785	1025.849	104.36	-1956.037	940.27	728.479	-1931.439	933.394	-165.128	-1878.188	878.107	952.428	-1807.744	888.923	-368.371	-1892.532	534.831	296.554	-1893.76	537.411	382.312	-1891.17	531.97	201.451	-1942.372	126.749	438.52	-1935.831	117.741	170.448	-2034.439	-264.088	478	-2010.795	-273.362	141.544	-1901.809	-376.059	525.18	-1842.137	-371.541	129.845
159	8.576	-1903.263	1093.199	281.527	-1903.263	1093.199	281.527	-1894.78	1025.827	450.602	-1888.621	1023.047	102.389	-1954.866	935.689	723.14	-1932.232	936.544	-168.652	-1878.048	872.734	946.711	-1806.336	885.209	-368.342	-1890.097	534.211	296.372	-1892.233	536.887	381.946	-1887.729	531.243	201.475	-1942.819	127.309	438.398	-1933.782	117.971	170.511	-2032.114	-263.189	479.659	-2008.209	-272.494	142.145	-1899.49	-375.236	525.343	-1840.425	-371.411	130.348
160	8.623	-1903.19	1093.659	281.598	-1903.19	1093.659	281.598	-1894.625	1026.439	450.872	-1888.015	1023.346	102.38	-1952.422	935.767	724.008	-1929.138	935.921	-169.026	-1875.949	873.824	948.217	-1801.57	885.36	-368.112	-1890.553	534.139	296.536	-1892.733	536.82	382.184	-1888.135	531.165	201.555	-1943.515	126.83	438.201	-1934.023	117.477	170.892	-2032.871	-264.098	478.753	-2009.058	-273.254	142.818	-1900.721	-376.309	526.011	-1842.381	-374.156	129.376
161	8.669	-1903.467	1093.919	282.549	-1903.467	1093.919	282.549	-1894.371	1026.846	451.82	-1888.65	1023.625	103.26	-1950.143	935.838	725.282	-1930.815	935.932	-167.915	-1872.587	876.003	949.705	-1803.65	885.151	-367.218	-1890.357	534.392	297.033	-1892.487	537.006	382.689	-1887.995	531.493	202.044	-1943.38	126.948	438.271	-1933.595	117.783	170.972	-2033.932	-263.811	478.005	-2007.92	-273.067	142.365	-1901.634	-375.894	525.184	-1840.667	-373.183	130.102
162	8.716	-1903.256	1093.928	282.963	-1903.256	1093.928	282.963	-1894.412	1026.694	452.215	-1888.199	1023.841	103.588	-1950.825	935.93	725.682	-1929.557	936.289	-167.81	-1873.539	875.51	950.088	-1801.619	886.622	-366.949	-1890.413	534.285	297.141	-1892.562	536.869	382.812	-1888.029	531.418	202.135	-1943.65	126.757	438.351	-1934.049	117.693	170.908	-2034.587	-264.003	477.901	-2008.966	-273.111	142.257	-1902.931	-376.539	525.911	-1841.327	-372.579	129.469
